<?xml version="1.0" encoding="UTF-8" standalone="no"?>
<svg
   xmlns:dc="http://purl.org/dc/elements/1.1/"
   xmlns:cc="http://creativecommons.org/ns#"
   xmlns:rdf="http://www.w3.org/1999/02/22-rdf-syntax-ns#"
   xmlns:svg="http://www.w3.org/2000/svg"
   xmlns="http://www.w3.org/2000/svg"
   xmlns:sodipodi="http://sodipodi.sourceforge.net/DTD/sodipodi-0.dtd"
   xmlns:inkscape="http://www.inkscape.org/namespaces/inkscape"
   viewBox="0 0 24 24"
   version="1.1"
   id="svg4"
   sodipodi:docname="genre.svg"
   inkscape:version="0.92.4 (f8dce91, 2019-08-02)">
  <metadata
     id="metadata10">
    <rdf:RDF>
      <cc:Work
         rdf:about="">
        <dc:format>image/svg+xml</dc:format>
        <dc:type
           rdf:resource="http://purl.org/dc/dcmitype/StillImage" />
        <dc:title></dc:title>
      </cc:Work>
    </rdf:RDF>
  </metadata>
  <defs
     id="defs8" />
  <sodipodi:namedview
     pagecolor="#ffffff"
     bordercolor="#666666"
     borderopacity="1"
     objecttolerance="10"
     gridtolerance="10"
     guidetolerance="10"
     inkscape:pageopacity="0"
     inkscape:pageshadow="2"
     inkscape:window-width="1850"
     inkscape:window-height="1022"
     id="namedview6"
     showgrid="false"
     inkscape:zoom="9.8333333"
     inkscape:cx="0.66101695"
     inkscape:cy="12"
     inkscape:window-x="70"
     inkscape:window-y="27"
     inkscape:window-maximized="1"
     inkscape:current-layer="svg4" />
  <path
     d="M 11 3 L 11 14.125 C 10.41 13.977 9.732 13.95 9 14.125 C 6.791 14.654 5 16.60975 5 18.46875 C 5 20.32775 6.791 21.404 9 20.875 C 11.149 20.361 12.87575 18.4985 12.96875 16.6875 L 13 16.6875 L 13 7 L 18 7 L 18 3 L 11 3 z M 2 4 L 2 6 L 10 6 L 10 4 L 2 4 z M 19 4 L 19 6 L 22 6 L 22 4 L 19 4 z M 2 9 L 2 11 L 10 11 L 10 9 L 2 9 z M 14 9 L 14 11 L 22 11 L 22 9 L 19 9 L 14 9 z M 2 14 L 2 16 L 4.75 16 C 5.242 15.218 5.9735 14.526 6.8125 14 L 2 14 z M 14 14 L 14 16 L 22 16 L 22 14 L 14 14 z M 2 19 L 2 21 L 5.125 21 C 4.54 20.473 4.1795 19.785 4.0625 19 L 2 19 z M 13.25 19 C 12.759 19.781 12.0275 20.474 11.1875 21 L 22 21 L 22 19 L 13.25 19 z"
     id="path2"
     style="fill:#ffffff" />
</svg>
